<svg xmlns="http://www.w3.org/2000/svg" viewBox="0 0 1200 750" preserveAspectRatio="xMidYMid meet" role="img" aria-label="Multimodal Emotion Detection — audio + text fusion">
  <defs>
    <linearGradient id="bg4" x1="0%" y1="0%" x2="100%" y2="100%">
      <stop offset="0%" stop-color="#0a0e14"/>
      <stop offset="100%" stop-color="#141b26"/>
    </linearGradient>
    <linearGradient id="teal4" x1="0%" y1="0%" x2="100%" y2="100%">
      <stop offset="0%" stop-color="#17a2b8"/>
      <stop offset="100%" stop-color="#0f7a8c"/>
    </linearGradient>
    <linearGradient id="audio" x1="0%" y1="0%" x2="100%" y2="100%">
      <stop offset="0%" stop-color="#ec4899"/>
      <stop offset="100%" stop-color="#be185d"/>
    </linearGradient>
    <linearGradient id="text" x1="0%" y1="0%" x2="100%" y2="100%">
      <stop offset="0%" stop-color="#8b5cf6"/>
      <stop offset="100%" stop-color="#6d28d9"/>
    </linearGradient>
    <linearGradient id="fusion" x1="0%" y1="0%" x2="100%" y2="100%">
      <stop offset="0%" stop-color="#ec4899"/>
      <stop offset="50%" stop-color="#8b5cf6"/>
      <stop offset="100%" stop-color="#17a2b8"/>
    </linearGradient>
    <linearGradient id="green4" x1="0%" y1="0%" x2="0%" y2="100%">
      <stop offset="0%" stop-color="#4ade80"/>
      <stop offset="100%" stop-color="#16a34a"/>
    </linearGradient>
    <pattern id="grid4" width="40" height="40" patternUnits="userSpaceOnUse">
      <path d="M 40 0 L 0 0 0 40" fill="none" stroke="rgba(23, 162, 184, 0.06)" stroke-width="1"/>
    </pattern>
    <filter id="glow4" x="-50%" y="-50%" width="200%" height="200%">
      <feGaussianBlur stdDeviation="3" result="blur"/>
      <feMerge><feMergeNode in="blur"/><feMergeNode in="SourceGraphic"/></feMerge>
    </filter>
    <marker id="arr4" viewBox="0 0 10 10" refX="9" refY="5" markerWidth="8" markerHeight="8" orient="auto-start-reverse">
      <path d="M 0 0 L 10 5 L 0 10 z" fill="#17a2b8"/>
    </marker>
  </defs>

  <rect width="1200" height="750" fill="url(#bg4)"/>
  <rect width="1200" height="750" fill="url(#grid4)"/>

  <!-- Header -->
  <g transform="translate(40, 32)">
    <circle cx="8" cy="8" r="6" fill="#ec4899"/>
    <text x="24" y="13" font-family="monospace" font-size="11" fill="#17a2b8" letter-spacing="2" font-weight="500">
      MULTIMODAL EMOTION DETECTION · ACADEMIC · BCA · 2024
    </text>
  </g>

  <text x="40" y="90" font-family="Roboto, sans-serif" font-size="36" fill="#f9f1e9" font-weight="700" letter-spacing="-0.5">
    Audio + Text → Emotion
  </text>
  <text x="40" y="122" font-family="Roboto, sans-serif" font-size="16" fill="#8a9099" font-weight="300" font-style="italic">
    Fusion pipeline · Streamlit · real-time inference UX · mic + text input · emoji output
  </text>

  <!-- === Left column: Audio branch === -->
  <g transform="translate(40, 170)">
    <rect width="340" height="260" rx="10" fill="#1a2230" stroke="rgba(236, 72, 153, 0.3)"/>
    <text x="20" y="28" font-family="monospace" font-size="10" fill="#ec4899" letter-spacing="2" font-weight="600">AUDIO BRANCH</text>

    <!-- mic icon + recording state -->
    <g transform="translate(30, 54)">
      <circle cx="24" cy="24" r="24" fill="url(#audio)" filter="url(#glow4)"/>
      <g transform="translate(24, 24)" stroke="#fff" stroke-width="2.5" fill="none" stroke-linecap="round">
        <rect x="-6" y="-12" width="12" height="16" rx="6" fill="#fff" stroke="none"/>
        <path d="M -10 0 A 10 10 0 0 0 10 0"/>
        <line x1="0" y1="8" x2="0" y2="12"/>
        <line x1="-5" y1="12" x2="5" y2="12"/>
      </g>
      <!-- pulse ring -->
      <circle cx="24" cy="24" r="24" fill="none" stroke="#ec4899" stroke-width="2" opacity="0.4">
        <animate attributeName="r" values="24;36" dur="1.5s" repeatCount="indefinite"/>
        <animate attributeName="opacity" values="0.6;0" dur="1.5s" repeatCount="indefinite"/>
      </circle>
    </g>
    <text x="100" y="78" font-family="monospace" font-size="10" fill="#ec4899" letter-spacing="1" font-weight="600">● REC · 3.2s</text>
    <text x="100" y="94" font-family="monospace" font-size="9" fill="#8a9099">16 kHz mono · WAV</text>

    <!-- Waveform -->
    <g transform="translate(20, 130)">
      <text x="0" y="0" font-family="monospace" font-size="9" fill="#8a9099" letter-spacing="1">WAVEFORM</text>
      <g transform="translate(0, 14)">
        <!-- waveform bars -->
        <rect x="0" y="20" width="3" height="10" fill="#ec4899"/>
        <rect x="6" y="18" width="3" height="14" fill="#ec4899"/>
        <rect x="12" y="14" width="3" height="22" fill="#ec4899"/>
        <rect x="18" y="10" width="3" height="30" fill="#ec4899"/>
        <rect x="24" y="8" width="3" height="34" fill="#ec4899"/>
        <rect x="30" y="12" width="3" height="26" fill="#ec4899"/>
        <rect x="36" y="16" width="3" height="18" fill="#ec4899"/>
        <rect x="42" y="6" width="3" height="38" fill="#ec4899"/>
        <rect x="48" y="4" width="3" height="42" fill="#ec4899"/>
        <rect x="54" y="10" width="3" height="30" fill="#ec4899"/>
        <rect x="60" y="14" width="3" height="22" fill="#ec4899"/>
        <rect x="66" y="8" width="3" height="34" fill="#ec4899"/>
        <rect x="72" y="12" width="3" height="26" fill="#ec4899"/>
        <rect x="78" y="18" width="3" height="14" fill="#ec4899"/>
        <rect x="84" y="10" width="3" height="30" fill="#ec4899"/>
        <rect x="90" y="6" width="3" height="38" fill="#ec4899"/>
        <rect x="96" y="14" width="3" height="22" fill="#ec4899"/>
        <rect x="102" y="20" width="3" height="10" fill="#ec4899"/>
        <rect x="108" y="16" width="3" height="18" fill="#ec4899"/>
        <rect x="114" y="12" width="3" height="26" fill="#ec4899"/>
        <rect x="120" y="8" width="3" height="34" fill="#ec4899"/>
        <rect x="126" y="14" width="3" height="22" fill="#ec4899"/>
        <rect x="132" y="20" width="3" height="10" fill="#ec4899"/>
        <rect x="138" y="10" width="3" height="30" fill="#ec4899"/>
        <rect x="144" y="16" width="3" height="18" fill="#ec4899"/>
        <rect x="150" y="6" width="3" height="38" fill="#ec4899"/>
        <rect x="156" y="12" width="3" height="26" fill="#ec4899"/>
        <rect x="162" y="20" width="3" height="10" fill="#ec4899"/>
        <rect x="168" y="14" width="3" height="22" fill="#ec4899"/>
        <rect x="174" y="8" width="3" height="34" fill="#ec4899"/>
        <rect x="180" y="16" width="3" height="18" fill="#ec4899"/>
        <rect x="186" y="10" width="3" height="30" fill="#ec4899"/>
        <rect x="192" y="18" width="3" height="14" fill="#ec4899"/>
        <rect x="198" y="6" width="3" height="38" fill="#ec4899"/>
        <rect x="204" y="14" width="3" height="22" fill="#ec4899"/>
        <rect x="210" y="20" width="3" height="10" fill="#ec4899"/>
        <rect x="216" y="12" width="3" height="26" fill="#ec4899"/>
        <rect x="222" y="16" width="3" height="18" fill="#ec4899"/>
        <rect x="228" y="8" width="3" height="34" fill="#ec4899"/>
        <rect x="234" y="14" width="3" height="22" fill="#ec4899"/>
        <rect x="240" y="20" width="3" height="10" fill="#ec4899"/>
        <rect x="246" y="16" width="3" height="18" fill="#ec4899"/>
        <rect x="252" y="10" width="3" height="30" fill="#ec4899"/>
        <rect x="258" y="18" width="3" height="14" fill="#ec4899"/>
        <rect x="264" y="12" width="3" height="26" fill="#ec4899"/>
        <rect x="270" y="6" width="3" height="38" fill="#ec4899"/>
        <rect x="276" y="14" width="3" height="22" fill="#ec4899"/>
        <rect x="282" y="20" width="3" height="10" fill="#ec4899"/>
        <rect x="288" y="16" width="3" height="18" fill="#ec4899"/>
        <rect x="294" y="10" width="3" height="30" fill="#ec4899"/>
        <line x1="0" y1="24" x2="300" y2="24" stroke="#4a5262" stroke-width="0.5"/>
      </g>
    </g>

    <!-- MFCC features -->
    <g transform="translate(20, 206)">
      <text x="0" y="0" font-family="monospace" font-size="9" fill="#8a9099" letter-spacing="1">MFCC FEATURES · 40 COEFFS</text>
      <g transform="translate(0, 12)">
        <!-- heat map style -->
        <rect x="0" y="0" width="300" height="32" fill="#0f1824"/>
        <g opacity="0.85">
          <rect x="0" y="0" width="15" height="8" fill="#ec4899"/>
          <rect x="15" y="0" width="15" height="8" fill="#f472b6"/>
          <rect x="30" y="0" width="15" height="8" fill="#db2777"/>
          <rect x="45" y="0" width="15" height="8" fill="#ec4899"/>
          <rect x="60" y="0" width="15" height="8" fill="#fbcfe8"/>
          <rect x="75" y="0" width="15" height="8" fill="#be185d"/>
          <rect x="90" y="0" width="15" height="8" fill="#ec4899"/>
          <rect x="105" y="0" width="15" height="8" fill="#f472b6"/>
          <rect x="120" y="0" width="15" height="8" fill="#db2777"/>
          <rect x="135" y="0" width="15" height="8" fill="#ec4899"/>
          <rect x="150" y="0" width="15" height="8" fill="#be185d"/>
          <rect x="165" y="0" width="15" height="8" fill="#f472b6"/>
          <rect x="180" y="0" width="15" height="8" fill="#ec4899"/>
          <rect x="195" y="0" width="15" height="8" fill="#fbcfe8"/>
          <rect x="210" y="0" width="15" height="8" fill="#db2777"/>
          <rect x="225" y="0" width="15" height="8" fill="#ec4899"/>
          <rect x="240" y="0" width="15" height="8" fill="#f472b6"/>
          <rect x="255" y="0" width="15" height="8" fill="#be185d"/>
          <rect x="270" y="0" width="15" height="8" fill="#ec4899"/>
          <rect x="285" y="0" width="15" height="8" fill="#db2777"/>

          <rect x="0" y="8" width="15" height="8" fill="#f472b6"/>
          <rect x="15" y="8" width="15" height="8" fill="#ec4899"/>
          <rect x="30" y="8" width="15" height="8" fill="#db2777"/>
          <rect x="45" y="8" width="15" height="8" fill="#fbcfe8"/>
          <rect x="60" y="8" width="15" height="8" fill="#be185d"/>
          <rect x="75" y="8" width="15" height="8" fill="#ec4899"/>
          <rect x="90" y="8" width="15" height="8" fill="#f472b6"/>
          <rect x="105" y="8" width="15" height="8" fill="#db2777"/>
          <rect x="120" y="8" width="15" height="8" fill="#ec4899"/>
          <rect x="135" y="8" width="15" height="8" fill="#be185d"/>
          <rect x="150" y="8" width="15" height="8" fill="#f472b6"/>
          <rect x="165" y="8" width="15" height="8" fill="#ec4899"/>
          <rect x="180" y="8" width="15" height="8" fill="#db2777"/>
          <rect x="195" y="8" width="15" height="8" fill="#f472b6"/>
          <rect x="210" y="8" width="15" height="8" fill="#fbcfe8"/>
          <rect x="225" y="8" width="15" height="8" fill="#ec4899"/>
          <rect x="240" y="8" width="15" height="8" fill="#be185d"/>
          <rect x="255" y="8" width="15" height="8" fill="#f472b6"/>
          <rect x="270" y="8" width="15" height="8" fill="#db2777"/>
          <rect x="285" y="8" width="15" height="8" fill="#ec4899"/>

          <rect x="0" y="16" width="15" height="8" fill="#db2777"/>
          <rect x="15" y="16" width="15" height="8" fill="#f472b6"/>
          <rect x="30" y="16" width="15" height="8" fill="#ec4899"/>
          <rect x="45" y="16" width="15" height="8" fill="#be185d"/>
          <rect x="60" y="16" width="15" height="8" fill="#f472b6"/>
          <rect x="75" y="16" width="15" height="8" fill="#db2777"/>
          <rect x="90" y="16" width="15" height="8" fill="#ec4899"/>
          <rect x="105" y="16" width="15" height="8" fill="#fbcfe8"/>
          <rect x="120" y="16" width="15" height="8" fill="#f472b6"/>
          <rect x="135" y="16" width="15" height="8" fill="#ec4899"/>
          <rect x="150" y="16" width="15" height="8" fill="#db2777"/>
          <rect x="165" y="16" width="15" height="8" fill="#be185d"/>
          <rect x="180" y="16" width="15" height="8" fill="#ec4899"/>
          <rect x="195" y="16" width="15" height="8" fill="#f472b6"/>
          <rect x="210" y="16" width="15" height="8" fill="#db2777"/>
          <rect x="225" y="16" width="15" height="8" fill="#fbcfe8"/>
          <rect x="240" y="16" width="15" height="8" fill="#ec4899"/>
          <rect x="255" y="16" width="15" height="8" fill="#be185d"/>
          <rect x="270" y="16" width="15" height="8" fill="#f472b6"/>
          <rect x="285" y="16" width="15" height="8" fill="#db2777"/>

          <rect x="0" y="24" width="15" height="8" fill="#f472b6"/>
          <rect x="15" y="24" width="15" height="8" fill="#db2777"/>
          <rect x="30" y="24" width="15" height="8" fill="#ec4899"/>
          <rect x="45" y="24" width="15" height="8" fill="#f472b6"/>
          <rect x="60" y="24" width="15" height="8" fill="#be185d"/>
          <rect x="75" y="24" width="15" height="8" fill="#ec4899"/>
          <rect x="90" y="24" width="15" height="8" fill="#fbcfe8"/>
          <rect x="105" y="24" width="15" height="8" fill="#db2777"/>
          <rect x="120" y="24" width="15" height="8" fill="#ec4899"/>
          <rect x="135" y="24" width="15" height="8" fill="#f472b6"/>
          <rect x="150" y="24" width="15" height="8" fill="#db2777"/>
          <rect x="165" y="24" width="15" height="8" fill="#ec4899"/>
          <rect x="180" y="24" width="15" height="8" fill="#be185d"/>
          <rect x="195" y="24" width="15" height="8" fill="#f472b6"/>
          <rect x="210" y="24" width="15" height="8" fill="#fbcfe8"/>
          <rect x="225" y="24" width="15" height="8" fill="#db2777"/>
          <rect x="240" y="24" width="15" height="8" fill="#ec4899"/>
          <rect x="255" y="24" width="15" height="8" fill="#f472b6"/>
          <rect x="270" y="24" width="15" height="8" fill="#be185d"/>
          <rect x="285" y="24" width="15" height="8" fill="#ec4899"/>
        </g>
      </g>
    </g>
  </g>

  <!-- Text branch -->
  <g transform="translate(40, 450)">
    <rect width="340" height="160" rx="10" fill="#1a2230" stroke="rgba(139, 92, 246, 0.3)"/>
    <text x="20" y="28" font-family="monospace" font-size="10" fill="#a78bfa" letter-spacing="2" font-weight="600">TEXT BRANCH</text>

    <!-- Text input box -->
    <g transform="translate(20, 44)">
      <rect width="300" height="50" rx="6" fill="#0f1824" stroke="rgba(139, 92, 246, 0.4)"/>
      <text x="14" y="20" font-family="monospace" font-size="10" fill="#8a9099" letter-spacing="1">TRANSCRIPT</text>
      <text x="14" y="40" font-family="Roboto, sans-serif" font-size="13" fill="#f9f1e9" font-style="italic">"I can't believe we did it!"</text>
    </g>

    <!-- Token embeddings -->
    <g transform="translate(20, 110)">
      <text x="0" y="0" font-family="monospace" font-size="9" fill="#8a9099" letter-spacing="1">TOKEN EMBEDDINGS · 768d</text>
      <g transform="translate(0, 10)">
        <rect x="0" y="0" width="42" height="20" rx="4" fill="url(#text)" opacity="0.4"/>
        <text x="21" y="14" text-anchor="middle" font-family="monospace" font-size="10" fill="#fff">I</text>
        <rect x="46" y="0" width="42" height="20" rx="4" fill="url(#text)" opacity="0.5"/>
        <text x="67" y="14" text-anchor="middle" font-family="monospace" font-size="10" fill="#fff">can't</text>
        <rect x="92" y="0" width="64" height="20" rx="4" fill="url(#text)" opacity="0.9"/>
        <text x="124" y="14" text-anchor="middle" font-family="monospace" font-size="10" fill="#fff">believe</text>
        <rect x="160" y="0" width="32" height="20" rx="4" fill="url(#text)" opacity="0.6"/>
        <text x="176" y="14" text-anchor="middle" font-family="monospace" font-size="10" fill="#fff">we</text>
        <rect x="196" y="0" width="38" height="20" rx="4" fill="url(#text)" opacity="0.5"/>
        <text x="215" y="14" text-anchor="middle" font-family="monospace" font-size="10" fill="#fff">did</text>
        <rect x="238" y="0" width="32" height="20" rx="4" fill="url(#text)" opacity="1"/>
        <text x="254" y="14" text-anchor="middle" font-family="monospace" font-size="10" fill="#fff">it!</text>
      </g>
    </g>
  </g>

  <!-- === Middle: Fusion === -->
  <g transform="translate(420, 260)">
    <!-- arrows from audio and text -->
    <path d="M -40 -40 Q 10 -10 40 40" stroke="#ec4899" stroke-width="2" fill="none" stroke-linecap="round" marker-end="url(#arr4)" opacity="0.7"/>
    <path d="M -40 240 Q 10 210 40 180" stroke="#a78bfa" stroke-width="2" fill="none" stroke-linecap="round" marker-end="url(#arr4)" opacity="0.7"/>

    <!-- Fusion block -->
    <g transform="translate(40, 50)">
      <rect width="220" height="140" rx="12" fill="url(#fusion)" opacity="0.25" stroke="url(#fusion)" stroke-width="2" filter="url(#glow4)"/>
      <text x="110" y="30" text-anchor="middle" font-family="monospace" font-size="10" fill="#f9f1e9" letter-spacing="2" font-weight="600">FUSION LAYER</text>

      <!-- Concat visualization: dots merge -->
      <g transform="translate(20, 50)">
        <!-- audio feature dots -->
        <circle cx="10" cy="10" r="4" fill="#ec4899"/>
        <circle cx="30" cy="10" r="4" fill="#ec4899"/>
        <circle cx="50" cy="10" r="4" fill="#ec4899"/>
        <circle cx="70" cy="10" r="4" fill="#ec4899"/>
        <circle cx="90" cy="10" r="4" fill="#ec4899"/>

        <!-- text feature dots -->
        <circle cx="110" cy="10" r="4" fill="#a78bfa"/>
        <circle cx="130" cy="10" r="4" fill="#a78bfa"/>
        <circle cx="150" cy="10" r="4" fill="#a78bfa"/>
        <circle cx="170" cy="10" r="4" fill="#a78bfa"/>

        <!-- merge line -->
        <line x1="0" y1="30" x2="180" y2="30" stroke="#fff" stroke-width="1" opacity="0.3" stroke-dasharray="3 3"/>

        <!-- merged embedding -->
        <circle cx="10" cy="50" r="5" fill="url(#teal4)"/>
        <circle cx="30" cy="50" r="5" fill="url(#teal4)"/>
        <circle cx="50" cy="50" r="5" fill="url(#teal4)"/>
        <circle cx="70" cy="50" r="5" fill="url(#teal4)"/>
        <circle cx="90" cy="50" r="5" fill="url(#teal4)"/>
        <circle cx="110" cy="50" r="5" fill="url(#teal4)"/>
        <circle cx="130" cy="50" r="5" fill="url(#teal4)"/>
        <circle cx="150" cy="50" r="5" fill="url(#teal4)"/>
        <circle cx="170" cy="50" r="5" fill="url(#teal4)"/>

        <text x="90" y="76" text-anchor="middle" font-family="monospace" font-size="9" fill="#f9f1e9" opacity="0.75">concat → dense → softmax</text>
      </g>
    </g>

    <!-- output arrow -->
    <path d="M 264 120 L 336 120" stroke="#17a2b8" stroke-width="2" fill="none" stroke-linecap="round" marker-end="url(#arr4)"/>
  </g>

  <!-- === Right: Emotion output === -->
  <g transform="translate(800, 170)">
    <rect width="360" height="440" rx="10" fill="#1a2230" stroke="rgba(74, 222, 128, 0.3)"/>
    <g transform="translate(16, 16)">
      <circle cx="6" cy="6" r="5" fill="#ef4444"/>
      <circle cx="24" cy="6" r="5" fill="#fbbf24"/>
      <circle cx="42" cy="6" r="5" fill="#4ade80"/>
      <text x="70" y="10" font-family="monospace" font-size="10" fill="#8a9099">Streamlit · emotion output</text>
    </g>

    <!-- Big emoji result -->
    <g transform="translate(180, 150)">
      <circle r="80" fill="url(#green4)" opacity="0.15"/>
      <circle r="62" fill="url(#green4)" opacity="0.25" filter="url(#glow4)"/>
      <g>
        <circle r="44" fill="#fbbf24"/>
        <ellipse cx="-15" cy="-10" rx="4" ry="6" fill="#111"/>
        <ellipse cx="15" cy="-10" rx="4" ry="6" fill="#111"/>
        <path d="M -22 8 Q 0 28 22 8" fill="none" stroke="#111" stroke-width="4" stroke-linecap="round"/>
        <circle cx="-18" cy="-15" r="2" fill="#fff" opacity="0.7"/>
      </g>
    </g>
    <text x="180" y="260" text-anchor="middle" font-family="Roboto, sans-serif" font-size="26" fill="#4ade80" font-weight="800">HAPPY</text>
    <text x="180" y="282" text-anchor="middle" font-family="monospace" font-size="11" fill="#8a9099" letter-spacing="1">CONFIDENCE · 91%</text>

    <!-- Distribution bars -->
    <g transform="translate(20, 310)">
      <text x="0" y="0" font-family="monospace" font-size="9" fill="#8a9099" letter-spacing="1">EMOTION DISTRIBUTION</text>
      <g transform="translate(0, 14)" font-family="Roboto, sans-serif" font-size="11">
        <g>
          <circle cx="8" cy="6" r="7" fill="#fbbf24"/><circle cx="6" cy="5" r="1" fill="#111"/><circle cx="10" cy="5" r="1" fill="#111"/><path d="M 5 8 Q 8 11 11 8" stroke="#111" stroke-width="1.2" fill="none"/><text x="22" y="10" fill="#d4d8de">Happy</text>
          <rect x="90" y="2" width="180" height="10" rx="5" fill="#2a3040"/>
          <rect x="90" y="2" width="164" height="10" rx="5" fill="url(#green4)"/>
          <text x="280" y="10" text-anchor="end" font-family="monospace" font-size="10" fill="#4ade80" font-weight="600">91%</text>
        </g>
        <g transform="translate(0, 20)">
          <circle cx="8" cy="6" r="7" fill="#d4d8de"/><circle cx="6" cy="5" r="1" fill="#111"/><circle cx="10" cy="5" r="1" fill="#111"/><line x1="5" y1="9" x2="11" y2="9" stroke="#111" stroke-width="1.2"/><text x="22" y="10" fill="#8a9099">Neutral</text>
          <rect x="90" y="2" width="180" height="10" rx="5" fill="#2a3040"/>
          <rect x="90" y="2" width="10" height="10" rx="5" fill="#a78bfa"/>
          <text x="280" y="10" text-anchor="end" font-family="monospace" font-size="10" fill="#8a9099">5%</text>
        </g>
        <g transform="translate(0, 40)">
          <circle cx="8" cy="6" r="7" fill="#60a5fa"/><circle cx="6" cy="5" r="1" fill="#111"/><circle cx="10" cy="5" r="1" fill="#111"/><path d="M 5 10 Q 8 7 11 10" stroke="#111" stroke-width="1.2" fill="none"/><text x="22" y="10" fill="#8a9099">Sad</text>
          <rect x="90" y="2" width="180" height="10" rx="5" fill="#2a3040"/>
          <rect x="90" y="2" width="4" height="10" rx="5" fill="#60a5fa"/>
          <text x="280" y="10" text-anchor="end" font-family="monospace" font-size="10" fill="#8a9099">2%</text>
        </g>
        <g transform="translate(0, 60)">
          <circle cx="8" cy="6" r="7" fill="#ef4444"/><circle cx="6" cy="5" r="1" fill="#fff"/><circle cx="10" cy="5" r="1" fill="#fff"/><path d="M 5 10 Q 8 7 11 10" stroke="#fff" stroke-width="1.2" fill="none"/><text x="22" y="10" fill="#8a9099">Angry</text>
          <rect x="90" y="2" width="180" height="10" rx="5" fill="#2a3040"/>
          <rect x="90" y="2" width="3" height="10" rx="5" fill="#ef4444"/>
          <text x="280" y="10" text-anchor="end" font-family="monospace" font-size="10" fill="#8a9099">1%</text>
        </g>
        <g transform="translate(0, 80)">
          <circle cx="8" cy="6" r="7" fill="#a78bfa"/><circle cx="6" cy="5" r="1" fill="#111"/><circle cx="10" cy="5" r="1" fill="#111"/><circle cx="8" cy="9" r="1.5" fill="none" stroke="#111" stroke-width="1"/><text x="22" y="10" fill="#8a9099">Surprised</text>
          <rect x="90" y="2" width="180" height="10" rx="5" fill="#2a3040"/>
          <rect x="90" y="2" width="2" height="10" rx="5" fill="#fbbf24"/>
          <text x="280" y="10" text-anchor="end" font-family="monospace" font-size="10" fill="#8a9099">1%</text>
        </g>
      </g>
    </g>
  </g>

  <!-- Bottom tech stack -->
  <g transform="translate(40, 622)">
    <rect width="1120" height="80" rx="10" fill="#1a2230" stroke="rgba(23, 162, 184, 0.15)"/>
    <text x="24" y="24" font-family="monospace" font-size="9" fill="#8a9099" letter-spacing="2">TECH STACK · FUSION PIPELINE</text>

    <g transform="translate(24, 38)" font-family="Roboto, sans-serif" font-size="12" fill="#d4d8de">
      <g>
        <rect width="76" height="28" rx="6" fill="#0f1824" stroke="rgba(236, 72, 153, 0.3)"/>
        <text x="38" y="18" text-anchor="middle" fill="#ec4899">Librosa</text>
      </g>
      <g transform="translate(82, 0)">
        <rect width="76" height="28" rx="6" fill="#0f1824" stroke="rgba(139, 92, 246, 0.3)"/>
        <text x="38" y="18" text-anchor="middle" fill="#a78bfa">BERT</text>
      </g>
      <g transform="translate(164, 0)">
        <rect width="100" height="28" rx="6" fill="#0f1824" stroke="rgba(23, 162, 184, 0.3)"/>
        <text x="50" y="18" text-anchor="middle" fill="#17a2b8">TensorFlow</text>
      </g>
      <g transform="translate(270, 0)">
        <rect width="100" height="28" rx="6" fill="#0f1824" stroke="rgba(23, 162, 184, 0.3)"/>
        <text x="50" y="18" text-anchor="middle" fill="#17a2b8">Keras</text>
      </g>
      <g transform="translate(376, 0)">
        <rect width="100" height="28" rx="6" fill="#0f1824" stroke="rgba(74, 222, 128, 0.3)"/>
        <text x="50" y="18" text-anchor="middle" fill="#4ade80">Streamlit</text>
      </g>
      <g transform="translate(482, 0)">
        <rect width="76" height="28" rx="6" fill="#0f1824" stroke="rgba(23, 162, 184, 0.3)"/>
        <text x="38" y="18" text-anchor="middle" fill="#17a2b8">NumPy</text>
      </g>

      <text x="700" y="18" font-family="monospace" font-size="10" fill="#8a9099" letter-spacing="1">REAL-TIME INFERENCE · MIC + TEXT · EMOJI OUT</text>
    </g>
  </g>

  <g transform="translate(40, 728)">
    <text x="0" y="0" font-family="monospace" font-size="10" fill="#4a5262" letter-spacing="1">
      ACADEMIC · BCA · MULTIMODAL FUSION PIPELINE
    </text>
    <text x="1120" y="0" text-anchor="end" font-family="monospace" font-size="10" fill="#4a5262" letter-spacing="1">
      VAIBHAV RAJ
    </text>
  </g>
</svg>
